<svg width="22" height="20" viewBox="0 0 22 20" fill="none" xmlns="http://www.w3.org/2000/svg">
<path d="M7.71713 15.3868H18.7945C19.1647 15.3868 19.4874 15.0831 19.4874 14.6749C19.4874 14.2667 19.1647 13.963 18.7945 13.963H7.8785C7.33745 13.963 7.00522 13.5833 6.91979 13.0043L5.36307 2.43947C5.26816 1.70858 5.00237 1.33838 4.03417 1.33838H0.702421C0.322734 1.33838 0 1.67061 0 2.05029C0 2.43947 0.322734 2.7717 0.702421 2.7717H3.91077L5.42952 13.1941C5.62886 14.542 6.34077 15.3868 7.71713 15.3868ZM5.97057 12.0076H18.8135C20.1993 12.0076 20.9112 11.1533 21.1106 9.79595L21.87 4.77455C21.8889 4.65115 21.908 4.49928 21.908 4.41385C21.908 3.95822 21.5662 3.64498 21.0442 3.64498H5.14476L5.15425 5.0783H20.2943L19.6204 9.62504C19.5444 10.2136 19.2311 10.5838 18.6711 10.5838H5.95159L5.97057 12.0076ZM8.467 20C9.3213 20 10.0048 19.3261 10.0048 18.4623C10.0048 17.608 9.3213 16.9245 8.467 16.9245C7.60323 16.9245 6.91979 17.608 6.91979 18.4623C6.91979 19.3261 7.60323 20 8.467 20ZM17.3422 20C18.206 20 18.8894 19.3261 18.8894 18.4623C18.8894 17.608 18.206 16.9245 17.3422 16.9245C16.4879 16.9245 15.795 17.608 15.795 18.4623C15.795 19.3261 16.4879 20 17.3422 20Z" fill="#ED342C"/>
</svg>
